<svg width="58" height="40" viewBox="0 0 58 40" fill="none" xmlns="http://www.w3.org/2000/svg">
<path d="M47.7377 28.2804V31.8258C47.7377 32.7171 47.4017 33.143 46.6938 33.143C45.986 33.143 45.645 32.7171 45.645 31.8258V28.2804H43.5337V31.8258C43.5337 33.9543 44.6182 35.0709 46.6938 35.0709C48.7694 35.0709 49.8404 33.9642 49.8404 31.8258V28.2804H47.739H47.7377Z" fill="white"/>
<path d="M36.8111 32.5017C37.5018 32.0215 37.9363 31.31 37.9363 30.5123C37.9363 30.0555 37.7935 29.6247 37.5424 29.2529C37.5338 29.2443 37.5289 29.2394 37.5239 29.2307C37.4833 29.168 37.439 29.1052 37.3934 29.0473C37.3528 29.003 37.3085 28.9574 37.2629 28.9082C36.8776 28.5364 36.299 28.2939 35.649 28.2853H34.045L32.095 28.2804V34.7742H34.045V32.6543H34.8156L35.0175 33.1344L35.6983 34.7742H37.9745L36.8087 32.498V32.5029L36.8111 32.5017ZM35.1394 31.0416H34.0462V29.9164H35.1394C35.569 29.9164 35.9149 30.1676 35.9149 30.4766C35.9149 30.7856 35.5702 31.0416 35.1394 31.0416Z" fill="white"/>
<path d="M4.8122 32.1262L6.55168 32.978C5.98663 34.1118 4.8085 34.8923 3.45065 34.8923C1.54128 34.8923 0 33.3597 0 31.4774C0 29.5951 1.54621 28.0624 3.45065 28.0624C4.81712 28.0624 6.00017 28.8515 6.56522 29.9989L4.82574 30.8545C4.60169 30.2943 4.0908 29.9004 3.49004 29.9004C2.6874 29.9004 2.0374 30.6083 2.0374 31.4823C2.0374 32.3564 2.6874 33.0593 3.49004 33.0593C4.07726 33.0593 4.58322 32.6826 4.8122 32.136V32.1274V32.1262Z" fill="white"/>
<path d="M11.2655 28.0563C9.27981 28.0563 7.68066 29.5889 7.68066 31.4712C7.68066 33.3535 9.28473 34.8862 11.2655 34.8862C13.2463 34.8862 14.8503 33.3535 14.8503 31.4712C14.8503 29.5889 13.2413 28.0563 11.2655 28.0563ZM11.2655 33.0174C10.4321 33.0174 9.75992 32.3268 9.75992 31.4712C9.75992 30.6156 10.4321 29.9201 11.2655 29.9201C12.0989 29.9201 12.7711 30.6144 12.7711 31.4712C12.7711 32.328 12.094 33.0174 11.2655 33.0174Z" fill="white"/>
<path d="M19.4088 28.1683H16.437V34.7791H19.4088C21.3945 34.7791 22.9936 33.2957 22.9936 31.4712C22.9936 29.6468 21.3895 28.1634 19.4088 28.1634V28.1683ZM19.3731 32.9325H18.4633V30.01H19.3731C20.2016 30.01 20.875 30.6649 20.875 31.4712C20.875 32.2776 20.2028 32.9325 19.3731 32.9325Z" fill="white"/>
<path d="M41.5987 28.2804H39.6487V34.7791H41.5987V28.2804Z" fill="white"/>
<path d="M30.8687 34.7791H28.7218L27.2026 30.0642L25.6835 34.7791H23.5144L25.9839 28.1683H28.3943L30.8687 34.7791Z" fill="white"/>
<path d="M57.1948 32.8697C57.1948 33.2637 57.0692 33.6317 56.8538 33.9407C56.5448 34.3888 56.0474 34.7163 55.4639 34.8283H55.459C55.0515 34.9711 54.6034 35.0475 54.1319 35.0475C53.003 35.0475 52.0034 34.5994 51.394 33.9137L52.2004 32.7799L52.3887 32.5066H52.3937C52.5328 32.6272 52.6891 32.7392 52.8602 32.8426C52.9279 32.8833 52.9993 32.9239 53.0757 32.9633C53.152 33.0039 53.2234 33.0347 53.2997 33.0704C53.5422 33.1738 53.7798 33.2501 54.0076 33.2895C54.0568 33.2981 54.1061 33.308 54.1553 33.3117C54.2045 33.3154 54.2587 33.3203 54.3116 33.3203C54.7462 33.3203 55.0958 33.1319 55.0958 32.8993C55.0958 32.6666 54.7462 32.4782 54.3116 32.4782C54.0654 32.4598 53.8192 32.4204 53.5718 32.3478C53.4462 32.317 53.3157 32.2764 53.1914 32.2308C53.1286 32.2086 53.0658 32.1816 53.003 32.1545C52.8861 32.0966 52.7605 32.0338 52.6263 31.9575C52.6128 31.9526 52.5956 31.944 52.582 31.9354C52.5635 31.9218 52.5463 31.9132 52.5278 31.9046C52.4872 31.8775 52.4515 31.8553 52.4207 31.8332C52.3666 31.7975 52.3136 31.7618 52.2681 31.7298C52.2459 31.7113 52.2053 31.6756 52.1561 31.6264C52.1511 31.6264 52.1474 31.6214 52.1474 31.6177C52.076 31.55 51.9862 31.4565 51.8963 31.3358C51.8471 31.2681 51.7978 31.193 51.7535 31.1118C51.6636 30.9505 51.5873 30.7622 51.5565 30.5467C51.5344 30.4212 51.5258 30.287 51.543 30.1429C51.5873 29.7662 51.7584 29.488 51.8877 29.3267C51.9012 29.2997 51.9185 29.2775 51.9369 29.259C52.2152 28.8959 52.7162 28.5783 53.344 28.3764C53.8365 28.2779 54.7376 28.1659 55.7692 28.5019C56.3207 28.6817 56.7467 28.9316 57.0471 29.147C56.7787 29.4917 56.5042 29.8327 56.2358 30.1774C56.1151 30.3301 55.9933 30.4827 55.8726 30.6341C55.7791 30.5492 55.6535 30.4544 55.5008 30.3608C55.4196 30.3116 55.331 30.2574 55.2362 30.2131C54.9309 30.0654 54.649 29.994 54.4335 29.957C54.4027 29.9521 54.3707 29.9484 54.3437 29.9435C54.2944 29.9349 54.2366 29.93 54.1775 29.93C53.8192 29.93 53.5275 30.0863 53.5275 30.2845C53.5275 30.4642 53.7835 30.6157 54.1147 30.6292C54.1331 30.6341 54.1553 30.6341 54.1775 30.6341H54.2045C54.3387 30.6391 54.4729 30.6526 54.612 30.6698C54.9296 30.7141 55.23 30.7819 55.5082 30.8803H55.5132C55.603 30.9074 55.6744 30.948 55.7594 30.9788H55.7643C55.8492 31.0096 55.9342 31.0416 56.0105 31.0822C56.0954 31.1229 56.1718 31.1635 56.253 31.2127C56.45 31.3432 56.6248 31.4946 56.7688 31.6793C56.9387 31.8898 57.0643 32.1323 57.132 32.3958C57.1726 32.5484 57.1948 32.7048 57.1948 32.866V32.8697Z" fill="white"/>
<path d="M4.47107 39.5741V39.9188H2.77222V37.4H4.45261V37.741H3.144V38.4846H4.37628V38.8157H3.144V39.5778H4.47107V39.5728V39.5741Z" fill="#F06434"/>
<path d="M4.83423 38.785H5.76614V39.1161H4.83423V38.785Z" fill="#F06434"/>
<path d="M7.43783 37.7189C6.91833 37.7189 6.5367 38.1091 6.5367 38.6557C6.5367 39.2023 6.9134 39.5925 7.42798 39.5925C7.82192 39.5925 8.07798 39.4312 8.22571 39.0952L8.58394 39.2343C8.37836 39.6775 7.97457 39.9508 7.42798 39.9508C6.69797 39.9508 6.15015 39.4128 6.15015 38.6557C6.15015 37.8986 6.70166 37.3655 7.4366 37.3655C7.96965 37.3655 8.34635 37.6339 8.56178 38.0463L8.20355 38.1805C8.0472 37.8715 7.79607 37.7189 7.4366 37.7189H7.43783Z" fill="#F06434"/>
<path d="M8.79199 38.6557C8.79199 37.9121 9.3472 37.3655 10.1006 37.3655C10.854 37.3655 11.4092 37.8986 11.4092 38.6557C11.4092 39.4128 10.8577 39.9508 10.1006 39.9508C9.3435 39.9508 8.79199 39.4128 8.79199 38.6557ZM11.0239 38.6557C11.0239 38.0956 10.6435 37.7189 10.1006 37.7189C9.55771 37.7189 9.17731 38.1091 9.17731 38.6557C9.17731 39.2023 9.55402 39.5925 10.1006 39.5925C10.6472 39.5925 11.0239 39.2023 11.0239 38.6557Z" fill="#F06434"/>
<path d="M11.9915 37.3643H12.2832L13.2471 39.3537L14.2147 37.3643H14.5065V39.9188H14.179V38.1534L13.3235 39.9188H13.1807L12.3288 38.1571V39.9188H12.0013V37.3643H11.9927H11.9915Z" fill="#F06434"/>
<path d="M15.2637 37.3643H15.5554L16.5193 39.3537L17.487 37.3643H17.7787V39.9188H17.4513V38.1534L16.5957 39.9188H16.4529L15.601 38.1571V39.9188H15.2735V37.3643H15.2649H15.2637Z" fill="#F06434"/>
<path d="M40.2578 37.3643H40.5496L41.5135 39.3537L42.4811 37.3643H42.7729V39.9188H42.4454V38.1534L41.5898 39.9188H41.447L40.5951 38.1571V39.9188H40.2677V37.3643H40.259H40.2578Z" fill="#F06434"/>
<path d="M20.2606 39.5568V39.9015H18.5618V37.3828H20.2422V37.7238H18.9335V38.4673H20.1658V38.7985H18.9335V39.5605H20.2606V39.5556V39.5568Z" fill="#F06434"/>
<path d="M22.2547 39.9015L21.6761 39.0275H21.1382V39.9015H20.7615V37.3828H21.6983C22.2904 37.3828 22.6573 37.7004 22.6573 38.2076C22.6573 38.588 22.4332 38.8662 22.0615 38.9782L22.7201 39.9015H22.2535H22.2547ZM21.1382 38.6729H21.7032C22.0529 38.6729 22.2683 38.4981 22.2683 38.2027C22.2683 37.9072 22.0578 37.7275 21.7032 37.7275H21.1382V38.6729Z" fill="#F06434"/>
<path d="M24.4683 37.7324C23.9488 37.7324 23.5672 38.1226 23.5672 38.6692C23.5672 39.2158 23.9439 39.606 24.4585 39.606C24.8524 39.606 25.1085 39.4448 25.2562 39.1087L25.6145 39.2478C25.4089 39.691 25.0051 39.9643 24.4585 39.9643C23.7285 39.9643 23.1807 39.4263 23.1807 38.6692C23.1807 37.9121 23.7322 37.3791 24.4671 37.3791C25.0002 37.3791 25.3769 37.6474 25.5923 38.0598L25.2341 38.194C25.0777 37.885 24.8266 37.7324 24.4671 37.7324H24.4683Z" fill="#F06434"/>
<path d="M27.6691 39.5876V39.9323H25.9702V37.4136H27.6506V37.7546H26.342V38.4981H27.5743V38.8293H26.342V39.5913H27.6691V39.5864V39.5876Z" fill="#F06434"/>
<path d="M30.9756 39.3365H29.7433L29.5008 39.9323H29.0884L30.1422 37.4136H30.5853L31.6391 39.9323H31.2218L30.9793 39.3365H30.9744H30.9756ZM30.8377 38.9967L30.3847 37.8814L30.3539 37.778L30.3268 37.8814L29.8738 38.9967H30.8377Z" fill="#F06434"/>
<path d="M32.0244 38.8797V37.4148H32.4048V38.8846C32.4048 39.3414 32.6732 39.6196 33.0954 39.6196C33.5177 39.6196 33.7861 39.3463 33.7861 38.8846V37.4148H34.1628V38.8797C34.1628 39.547 33.7553 39.9692 33.0917 39.9692C32.4282 39.9692 32.0256 39.5482 32.0256 38.8797H32.0244Z" fill="#F06434"/>
<path d="M36.7615 37.773H35.9146V39.9335H35.5342V37.773H34.6921V37.4148H36.7677V37.773H36.7628H36.7615Z" fill="#F06434"/>
<path d="M37.0583 38.6372C37.0583 37.8937 37.6136 37.3471 38.367 37.3471C39.1204 37.3471 39.6756 37.8801 39.6756 38.6372C39.6756 39.3943 39.1241 39.9323 38.367 39.9323C37.6099 39.9323 37.0583 39.3943 37.0583 38.6372ZM39.2903 38.6372C39.2903 38.0771 38.9099 37.7004 38.367 37.7004C37.8241 37.7004 37.4437 38.0906 37.4437 38.6372C37.4437 39.1838 37.8204 39.5741 38.367 39.5741C38.9136 39.5741 39.2903 39.1838 39.2903 38.6372Z" fill="#F06434"/>
<path d="M45.1155 39.3008H43.8832L43.6407 39.8966H43.2283L44.2821 37.3779H44.7252L45.779 39.8966H45.3617L45.1192 39.3008H45.1142H45.1155ZM44.9813 38.9598L44.5283 37.8444L44.4975 37.741L44.4704 37.8444L44.0174 38.9598H44.9813Z" fill="#F06434"/>
<path d="M47.9617 37.773H47.1148V39.9335H46.7344V37.773H45.8923V37.4148H47.9679V37.773H47.963H47.9617Z" fill="#F06434"/>
<path d="M48.4282 37.4136H48.8135V39.9323H48.4282V37.4136Z" fill="#F06434"/>
<path d="M49.396 38.7049C49.396 37.9614 49.9512 37.4148 50.7046 37.4148C51.458 37.4148 52.0132 37.9478 52.0132 38.7049C52.0132 39.462 51.4617 40 50.7046 40C49.9475 40 49.396 39.462 49.396 38.7049ZM51.6279 38.7049C51.6279 38.1448 51.2475 37.7681 50.7046 37.7681C50.1617 37.7681 49.7813 38.1583 49.7813 38.7049C49.7813 39.2515 50.158 39.6417 50.7046 39.6417C51.2512 39.6417 51.6279 39.2515 51.6279 38.7049Z" fill="#F06434"/>
<path d="M52.5955 37.4136H52.9266L54.3879 39.3008V37.4136H54.7597V39.9323H54.4285L52.9672 38.05V39.9323H52.5955V37.4136Z" fill="#F06434"/>
<path d="M28.3427 17.9236V22.5331C27.373 22.3941 26.4532 22.1242 25.5798 21.757C24.2302 21.1789 23.0196 20.3529 22.0071 19.3323L25.2079 16.1315C25.2079 16.1315 25.2253 16.1605 25.2461 16.1732C26.0895 17.0119 27.1529 17.6236 28.3415 17.9236H28.3427Z" fill="white"/>
<path d="M38.2406 3.31898L35.0398 6.51979C34.9054 6.38078 34.7653 6.25451 34.6181 6.13171C33.4284 5.1366 31.8981 4.52956 30.2322 4.52956C28.9243 4.52956 27.7056 4.89679 26.6688 5.52931C25.5219 6.22902 24.6067 7.267 24.0414 8.4938C23.6406 9.35801 23.4135 10.3242 23.4135 11.3401C23.4135 11.9089 23.4854 12.4615 23.6197 12.9932H19.0102C18.9303 12.4534 18.8875 11.9008 18.8875 11.3401C18.8875 9.06724 19.5582 6.9461 20.7178 5.17019C21.4395 4.05691 22.3547 3.07454 23.4124 2.27753C24.901 1.15614 26.6769 0.396192 28.6046 0.118163C29.1317 0.0382291 29.6762 0 30.2287 0C33.3577 0 36.1878 1.26967 38.2371 3.31434L38.2418 3.31898H38.2406Z" fill="url(#paint0_linear_7_1619)"/>
<path d="M34.3644 13.1925L37.3463 16.1732H31.7544L31.5691 15.9843L28.5698 12.9897L28.5826 12.977L31.3698 10.1932L35.0398 6.51974L35.4904 6.97154L35.5078 6.98776L38.0379 9.51435L37.0127 10.5431L34.5799 12.977L34.3644 13.1925Z" fill="white"/>
<defs>
<linearGradient id="paint0_linear_7_1619" x1="15.8616" y1="10.8825" x2="37.1297" y2="1.41795" gradientUnits="userSpaceOnUse">
<stop stop-color="#F5843F"/>
<stop offset="1" stop-color="#ED6B23"/>
</linearGradient>
</defs>
</svg>
