<svg width="34" height="40" viewBox="0 0 34 40" fill="none" xmlns="http://www.w3.org/2000/svg">
<path d="M25.869 24.343L25.3819 28.0835L24.1253 26.2518L18.3099 25.2877L17.3458 25.1318L12.5042 24.3036L8.70542 17.8651L7.47803 18.6344L8.08176 16.8033L11.2282 17.3584L13.1473 19.6282L10.6925 6.10352e-05L17.6279 3.2145L19.8588 7.84139L21.2907 15.5953L16.1864 21.4302L22.9956 25.531L25.869 24.343Z" fill="url(#paint0_linear_7_1596)"/>
<path d="M2.77925 33.6457V32.6243H5.12567V34.7187C4.6799 35.0223 4.27912 35.236 3.93611 35.3459C3.5936 35.4558 3.18004 35.5141 2.7082 35.5141C2.23636 35.5141 1.64796 35.417 1.2799 35.2166C0.911321 35.0162 0.627092 34.7187 0.426701 34.3312C0.22631 33.937 0.123047 33.4846 0.123047 32.9801C0.123047 32.4755 0.232955 31.9781 0.452772 31.584C0.672589 31.1898 0.995669 30.8857 1.42252 30.6792C1.75225 30.5176 2.20466 30.4399 2.76699 30.4399C3.32931 30.4399 3.71731 30.4915 3.98211 30.5887C4.25356 30.6858 4.47338 30.8407 4.65434 31.0477C4.82866 31.2548 4.96464 31.5196 5.05513 31.8365L3.58798 32.0952C3.5297 31.9076 3.42644 31.7655 3.28432 31.6683C3.14221 31.5712 2.9546 31.5196 2.73478 31.5196C2.40505 31.5196 2.13361 31.6361 1.93986 31.8687C1.73947 32.1013 1.64234 32.4632 1.64234 32.9678C1.64234 33.4724 1.73947 33.8793 1.93986 34.1052C2.14025 34.3317 2.41835 34.4477 2.77363 34.4477C3.12892 34.4477 3.10336 34.4217 3.25825 34.3767C3.41315 34.325 3.58798 34.2407 3.78837 34.1247V33.6595L2.77977 33.6467L2.77925 33.6457Z" fill="url(#paint1_linear_7_1596)"/>
<path d="M5.83669 32.9735C5.83669 32.1719 6.06316 31.5452 6.50892 31.0989C6.95469 30.6531 7.57529 30.4267 8.37686 30.4267C9.17842 30.4267 9.82458 30.6465 10.2642 31.0861C10.7039 31.5257 10.9298 32.1397 10.9298 32.9285C10.9298 33.7173 10.8327 33.9754 10.6389 34.344C10.4452 34.7126 10.1671 34.9968 9.79851 35.2039C9.42993 35.4109 8.97752 35.5075 8.43462 35.5075C7.89173 35.5075 7.41989 35.417 7.05796 35.2427C6.69602 35.0684 6.3985 34.7836 6.17255 34.4023C5.95274 34.0209 5.83618 33.5424 5.83618 32.974L5.83669 32.9735ZM7.35599 32.9801C7.35599 33.478 7.44647 33.8333 7.63408 34.0465C7.82169 34.2663 8.06707 34.3696 8.38401 34.3696C8.70096 34.3696 8.96576 34.2663 9.14008 34.0526C9.32105 33.8395 9.40489 33.4581 9.40489 32.9086C9.40489 32.359 9.3144 32.107 9.12679 31.8938C8.93918 31.6806 8.68716 31.5707 8.37072 31.5707C8.05429 31.5707 7.82118 31.6806 7.63408 31.8938C7.44647 32.1203 7.35599 32.4756 7.35599 32.9796V32.9801Z" fill="url(#paint2_linear_7_1596)"/>
<path d="M11.2205 30.5107H15.8356V31.7258H14.2841V35.4233H12.7654V31.7258H11.2139V30.5107H11.2205Z" fill="url(#paint3_linear_7_1596)"/>
<path d="M16.1016 32.9735C16.1016 32.1719 16.328 31.5452 16.7738 31.0989C17.2196 30.6531 17.8402 30.4267 18.6418 30.4267C19.4433 30.4267 20.0895 30.6465 20.5291 31.0861C20.9687 31.5257 21.1947 32.1397 21.1947 32.9285C21.1947 33.7173 21.0976 33.9754 20.9038 34.344C20.7101 34.7126 20.432 34.9968 20.0634 35.2039C19.6948 35.4109 19.2424 35.5075 18.6995 35.5075C18.1566 35.5075 17.6848 35.417 17.3228 35.2427C16.9609 35.0684 16.6634 34.7836 16.4374 34.4023C16.2115 34.0209 16.1011 33.5424 16.1011 32.974L16.1016 32.9735ZM17.6204 32.9801C17.6204 33.478 17.7109 33.8333 17.8985 34.0465C18.0861 34.2663 18.3314 34.3696 18.6484 34.3696C18.9653 34.3696 19.2301 34.2663 19.4045 34.0526C19.5854 33.8395 19.6693 33.4581 19.6693 32.9086C19.6693 32.359 19.5788 32.107 19.3912 31.8938C19.2036 31.6806 18.9515 31.5707 18.6351 31.5707C18.3187 31.5707 18.0856 31.6806 17.8985 31.8938C17.7109 32.1203 17.6204 32.4756 17.6204 32.9796V32.9801Z" fill="url(#paint4_linear_7_1596)"/>
<path d="M21.9902 30.5107H23.9875L24.7569 33.5033L25.5196 30.5107H27.5168V35.4233H26.2756V31.6742L25.3192 35.4233H24.1945L23.2381 31.6742V35.4233H21.9969V30.5107H21.9902Z" fill="url(#paint5_linear_7_1596)"/>
<path d="M31.5048 34.6156H29.7856L29.5464 35.4238H27.9949L29.8434 30.5111H31.4981L33.3467 35.4238H31.7563L31.5043 34.6156H31.5048ZM31.1945 33.5487L30.6516 31.784L30.1148 33.5487H31.1945Z" fill="url(#paint6_linear_7_1596)"/>
<path d="M0 39.0691L0.497911 39.0175C0.530117 39.1918 0.588394 39.3212 0.678877 39.4055C0.76936 39.4899 0.892048 39.5282 1.04745 39.5282C1.20286 39.5282 1.33833 39.4894 1.42217 39.4183C1.506 39.3472 1.54485 39.2568 1.54485 39.1596C1.54485 39.0625 1.52543 39.0431 1.49322 38.9981C1.46102 38.9526 1.39609 38.9142 1.31226 38.8815C1.25398 38.8621 1.11851 38.8233 0.904828 38.765C0.63338 38.6939 0.439634 38.6034 0.329726 38.5002C0.174831 38.3514 0.0971285 38.1704 0.0971285 37.9634C0.0971285 37.7564 0.13598 37.6986 0.207037 37.5821C0.278094 37.4655 0.388003 37.375 0.523982 37.3106C0.659962 37.2462 0.827637 37.2201 1.02189 37.2201C1.33884 37.2201 1.57757 37.2912 1.73962 37.4399C1.90116 37.5887 1.985 37.7824 1.99164 38.0283L1.48095 38.0544C1.46153 37.9184 1.4099 37.8152 1.33884 37.7569C1.26778 37.6986 1.15787 37.6664 1.01576 37.6664C0.873645 37.6664 0.750956 37.6986 0.666608 37.7635C0.614976 37.8024 0.582771 37.8607 0.582771 37.9317C0.582771 38.0028 0.608842 38.0483 0.660474 38.0933C0.724885 38.1515 0.880291 38.2098 1.13231 38.2742C1.38434 38.3386 1.5653 38.4036 1.68186 38.468C1.79841 38.5324 1.89503 38.6229 1.95995 38.7394C2.02487 38.856 2.06321 38.9981 2.06321 39.1663C2.06321 39.3345 2.02436 39.4638 1.94052 39.5993C1.86282 39.7352 1.74678 39.8319 1.59802 39.8968C1.44926 39.9612 1.26829 39.9939 1.04848 39.9939C0.725396 39.9939 0.479508 39.9162 0.311833 39.7613C0.137513 39.5998 0.0337394 39.3733 0.00153361 39.0697L0 39.0691Z" fill="url(#paint7_linear_7_1596)"/>
<path d="M2.38452 38.6228C2.38452 38.3514 2.42337 38.1188 2.50108 37.9378C2.55935 37.8019 2.63706 37.6792 2.73367 37.5693C2.8308 37.4593 2.94071 37.3816 3.0634 37.33C3.21829 37.259 3.4059 37.2267 3.6063 37.2267C3.98101 37.2267 4.27853 37.3494 4.49834 37.5953C4.72481 37.8407 4.83471 38.1771 4.83471 38.6167C4.83471 39.0563 4.72481 39.3861 4.49834 39.6314C4.27853 39.8768 3.98101 40 3.6063 40C3.23158 40 2.92742 39.8773 2.7076 39.6381C2.49443 39.3794 2.38452 39.0436 2.38452 38.6234V38.6228ZM2.90799 38.6039C2.90799 38.9076 2.9724 39.134 3.10838 39.2956C3.23772 39.4505 3.4059 39.5282 3.61243 39.5282C3.81896 39.5282 3.98101 39.4505 4.11648 39.2956C4.24581 39.1407 4.31022 38.9076 4.31022 38.5973C4.31022 38.287 4.24581 38.0605 4.11648 37.9123C3.98714 37.7635 3.81896 37.6858 3.61243 37.6858C3.4059 37.6858 3.23107 37.7635 3.10174 37.9123C2.9724 38.061 2.90799 38.2936 2.90799 38.6039Z" fill="url(#paint8_linear_7_1596)"/>
<path d="M5.24194 39.9418V37.2656H6.97441V37.718H5.75263V38.3514H6.80622V38.8038H5.75263V39.9413H5.24194V39.9418Z" fill="url(#paint9_linear_7_1596)"/>
<path d="M7.97015 39.9418V37.718H7.22021V37.2656H9.23026V37.718H8.48033V39.9418H7.96964H7.97015Z" fill="url(#paint10_linear_7_1596)"/>
<path d="M9.91563 39.9418L9.31445 37.2656H9.83792L10.2193 39.1014L10.6845 37.2656H11.2923L11.7381 39.1336L12.1261 37.2656H12.6434L12.0294 39.9418H11.4866L10.9825 37.9379L10.4785 39.9418H9.91614H9.91563Z" fill="url(#paint11_linear_7_1596)"/>
<path d="M14.9825 39.9418H14.4269L14.2071 39.334H13.1923L12.9853 39.9418H12.4424L13.4316 37.2656H13.9745L14.9831 39.9418H14.9825ZM14.0389 38.8815L13.6897 37.8862L13.3472 38.8815H14.0389Z" fill="url(#paint12_linear_7_1596)"/>
<path d="M15.2539 39.9418V37.2656H16.3269C16.5984 37.2656 16.7921 37.2917 16.9153 37.3367C17.038 37.3822 17.1351 37.4727 17.2128 37.5954C17.2839 37.718 17.3227 37.8602 17.3227 38.0156C17.3227 38.171 17.2645 38.3841 17.1546 38.5135C17.0446 38.6428 16.8765 38.7266 16.6566 38.7588C16.7666 38.8299 16.857 38.901 16.9281 38.9853C16.9992 39.0697 17.0963 39.2118 17.219 39.4183L17.5293 39.9418H16.9214L16.5529 39.36C16.4235 39.153 16.3331 39.0237 16.2814 38.9659C16.2359 38.9143 16.1843 38.8754 16.1265 38.856C16.0749 38.8366 15.9844 38.8238 15.8679 38.8238H15.7646V39.9423H15.2539V39.9418ZM15.7646 38.3969H16.1393C16.3847 38.3969 16.5401 38.3841 16.5984 38.3647C16.6566 38.3453 16.7083 38.3064 16.7405 38.2482C16.7727 38.1965 16.7921 38.1255 16.7921 38.0478C16.7921 37.9701 16.766 37.8862 16.7211 37.8279C16.6756 37.7697 16.6111 37.7375 16.5273 37.7247C16.4885 37.718 16.3591 37.718 16.1526 37.718H15.7518L15.7646 38.3969Z" fill="url(#paint13_linear_7_1596)"/>
<path d="M17.8079 39.9418V37.2656H19.6824V37.718H18.3186V38.3126H19.592V38.765H18.3186V39.4955H19.7341V39.9479H17.8079V39.9413V39.9418Z" fill="url(#paint14_linear_7_1596)"/>
<path d="M21.1499 39.9418V37.2656H21.6606V38.3192H22.6625V37.2656H23.1732V39.9418H22.6625V38.7716H21.6606V39.9418H21.1499Z" fill="url(#paint15_linear_7_1596)"/>
<path d="M23.5996 38.6228C23.5996 38.3514 23.6385 38.1188 23.7162 37.9378C23.7744 37.8019 23.8521 37.6792 23.9488 37.5693C24.0454 37.4593 24.1558 37.3816 24.2785 37.33C24.4334 37.259 24.621 37.2267 24.8214 37.2267C25.1961 37.2267 25.4936 37.3494 25.7134 37.5953C25.9399 37.8407 26.0498 38.1771 26.0498 38.6167C26.0498 39.0563 25.9399 39.3861 25.7134 39.6314C25.4936 39.8768 25.1961 40 24.8214 40C24.4467 40 24.1425 39.8773 23.9227 39.6381C23.7095 39.3794 23.5996 39.0436 23.5996 38.6234V38.6228ZM24.1231 38.6039C24.1231 38.9076 24.1875 39.134 24.3235 39.2956C24.4528 39.4505 24.621 39.5282 24.8275 39.5282C25.034 39.5282 25.1961 39.4505 25.3316 39.2956C25.4609 39.1407 25.5253 38.9076 25.5253 38.5973C25.5253 38.287 25.4609 38.0605 25.3316 37.9123C25.2022 37.764 25.034 37.6858 24.8275 37.6858C24.621 37.6858 24.4462 37.7635 24.3168 37.9123C24.1875 38.061 24.1231 38.2936 24.1231 38.6039Z" fill="url(#paint16_linear_7_1596)"/>
<path d="M26.4504 37.2656H26.9611V38.7134C26.9611 38.946 26.9611 39.0947 26.9806 39.1591C27 39.269 27.0516 39.3595 27.1355 39.4239C27.2193 39.4883 27.3292 39.5211 27.4718 39.5211C27.6144 39.5211 27.7238 39.4889 27.8015 39.4239C27.8792 39.359 27.9181 39.2818 27.9375 39.1913C27.9503 39.1009 27.957 38.946 27.957 38.7389V37.2585H28.4676V38.6679C28.4676 38.9909 28.4549 39.2174 28.4288 39.3467C28.4027 39.4827 28.3511 39.5921 28.2739 39.6831C28.2028 39.7736 28.0996 39.8447 27.9764 39.9029C27.8537 39.9546 27.6921 39.9868 27.4918 39.9868C27.2914 39.9868 27.0649 39.9546 26.9422 39.8963C26.8195 39.838 26.7158 39.7603 26.6447 39.6637C26.5736 39.5666 26.522 39.4699 26.5026 39.3662C26.4704 39.2113 26.451 38.9848 26.451 38.6873V37.2651L26.4504 37.2656Z" fill="url(#paint17_linear_7_1596)"/>
<path d="M28.8745 39.0691L29.3724 39.0175C29.4046 39.1918 29.4629 39.3212 29.5534 39.4055C29.6439 39.4894 29.7666 39.5282 29.922 39.5282C30.0774 39.5282 30.2128 39.4894 30.2967 39.4183C30.3805 39.3472 30.4194 39.2568 30.4194 39.1596C30.4194 39.0625 30.3999 39.0431 30.3677 38.9981C30.3355 38.9531 30.2706 38.9142 30.1868 38.8815C30.1285 38.8621 29.993 38.8233 29.7793 38.765C29.5079 38.6939 29.3141 38.6034 29.2042 38.5002C29.0493 38.3514 28.9716 38.1704 28.9716 37.9634C28.9716 37.7564 29.0105 37.6986 29.0815 37.5821C29.1526 37.4655 29.2625 37.375 29.3985 37.3106C29.5345 37.2462 29.7021 37.2201 29.8964 37.2201C30.2134 37.2201 30.4521 37.2912 30.6141 37.4399C30.7757 37.5887 30.8595 37.7824 30.8662 38.0283L30.3555 38.0544C30.336 37.9184 30.2844 37.8152 30.2134 37.7569C30.1423 37.6986 30.0324 37.6664 29.8903 37.6664C29.7482 37.6664 29.6255 37.6986 29.5411 37.7635C29.4895 37.8024 29.4573 37.8607 29.4573 37.9317C29.4573 38.0028 29.4834 38.0483 29.535 38.0933C29.5994 38.1515 29.7548 38.2098 30.0068 38.2742C30.2522 38.3386 30.4398 38.4036 30.5564 38.468C30.6729 38.5324 30.7695 38.6229 30.8345 38.7394C30.8989 38.856 30.9377 38.9981 30.9377 39.1663C30.9377 39.3345 30.8989 39.4638 30.815 39.5993C30.7373 39.7352 30.6213 39.8319 30.4725 39.8968C30.3238 39.9612 30.1428 39.9939 29.923 39.9939C29.606 39.9939 29.354 39.9162 29.1863 39.7613C29.012 39.5998 28.9082 39.3733 28.876 39.0697L28.8745 39.0691Z" fill="url(#paint18_linear_7_1596)"/>
<path d="M31.3633 39.9418V37.2656H33.2379V37.718H31.874V38.3126H33.1474V38.765H31.874V39.4955H33.2895V39.9479H31.3633V39.9413V39.9418Z" fill="url(#paint19_linear_7_1596)"/>
<defs>
<linearGradient id="paint0_linear_7_1596" x1="16.6689" y1="0.0609452" x2="16.6689" y2="28.0631" gradientUnits="userSpaceOnUse">
<stop stop-color="#AA7835"/>
<stop offset="0.33" stop-color="#F7F190"/>
<stop offset="0.66" stop-color="#F7F190"/>
<stop offset="1" stop-color="#EBBF3B"/>
</linearGradient>
<linearGradient id="paint1_linear_7_1596" x1="2.63642" y1="30.431" x2="2.63642" y2="35.5274" gradientUnits="userSpaceOnUse">
<stop stop-color="#AA7835"/>
<stop offset="0.33" stop-color="#F7F190"/>
<stop offset="0.66" stop-color="#F7F190"/>
<stop offset="1" stop-color="#EBBF3B"/>
</linearGradient>
<linearGradient id="paint2_linear_7_1596" x1="8.37348" y1="30.4217" x2="8.37348" y2="35.5246" gradientUnits="userSpaceOnUse">
<stop stop-color="#AA7835"/>
<stop offset="0.33" stop-color="#F7F190"/>
<stop offset="0.66" stop-color="#F7F190"/>
<stop offset="1" stop-color="#EBBF3B"/>
</linearGradient>
<linearGradient id="paint3_linear_7_1596" x1="13.5125" y1="30.5158" x2="13.5125" y2="35.4111" gradientUnits="userSpaceOnUse">
<stop stop-color="#AA7835"/>
<stop offset="0.33" stop-color="#F7F190"/>
<stop offset="0.66" stop-color="#F7F190"/>
<stop offset="1" stop-color="#EBBF3B"/>
</linearGradient>
<linearGradient id="paint4_linear_7_1596" x1="18.6666" y1="30.4217" x2="18.6666" y2="35.5246" gradientUnits="userSpaceOnUse">
<stop stop-color="#AA7835"/>
<stop offset="0.33" stop-color="#F7F190"/>
<stop offset="0.66" stop-color="#F7F190"/>
<stop offset="1" stop-color="#EBBF3B"/>
</linearGradient>
<linearGradient id="paint5_linear_7_1596" x1="24.7551" y1="30.5158" x2="24.7551" y2="35.4111" gradientUnits="userSpaceOnUse">
<stop stop-color="#AA7835"/>
<stop offset="0.33" stop-color="#F7F190"/>
<stop offset="0.66" stop-color="#F7F190"/>
<stop offset="1" stop-color="#EBBF3B"/>
</linearGradient>
<linearGradient id="paint6_linear_7_1596" x1="30.6607" y1="30.5157" x2="30.6607" y2="35.411" gradientUnits="userSpaceOnUse">
<stop stop-color="#AA7835"/>
<stop offset="0.33" stop-color="#F7F190"/>
<stop offset="0.66" stop-color="#F7F190"/>
<stop offset="1" stop-color="#EBBF3B"/>
</linearGradient>
<linearGradient id="paint7_linear_7_1596" x1="1.02634" y1="37.2314" x2="1.02634" y2="39.9947" gradientUnits="userSpaceOnUse">
<stop stop-color="#AA7835"/>
<stop offset="0.33" stop-color="#F7F190"/>
<stop offset="0.66" stop-color="#F7F190"/>
<stop offset="1" stop-color="#EBBF3B"/>
</linearGradient>
<linearGradient id="paint8_linear_7_1596" x1="3.60093" y1="37.2345" x2="3.60093" y2="39.9977" gradientUnits="userSpaceOnUse">
<stop stop-color="#AA7835"/>
<stop offset="0.33" stop-color="#F7F190"/>
<stop offset="0.66" stop-color="#F7F190"/>
<stop offset="1" stop-color="#EBBF3B"/>
</linearGradient>
<linearGradient id="paint9_linear_7_1596" x1="6.11262" y1="37.2727" x2="6.11262" y2="39.9393" gradientUnits="userSpaceOnUse">
<stop stop-color="#AA7835"/>
<stop offset="0.33" stop-color="#F7F190"/>
<stop offset="0.66" stop-color="#F7F190"/>
<stop offset="1" stop-color="#EBBF3B"/>
</linearGradient>
<linearGradient id="paint10_linear_7_1596" x1="8.21941" y1="37.2706" x2="8.21941" y2="39.9373" gradientUnits="userSpaceOnUse">
<stop stop-color="#AA7835"/>
<stop offset="0.33" stop-color="#F7F190"/>
<stop offset="0.66" stop-color="#F7F190"/>
<stop offset="1" stop-color="#EBBF3B"/>
</linearGradient>
<linearGradient id="paint11_linear_7_1596" x1="10.9863" y1="37.2706" x2="10.9863" y2="39.9373" gradientUnits="userSpaceOnUse">
<stop stop-color="#AA7835"/>
<stop offset="0.33" stop-color="#F7F190"/>
<stop offset="0.66" stop-color="#F7F190"/>
<stop offset="1" stop-color="#EBBF3B"/>
</linearGradient>
<linearGradient id="paint12_linear_7_1596" x1="13.7186" y1="37.2706" x2="13.7186" y2="39.9373" gradientUnits="userSpaceOnUse">
<stop stop-color="#AA7835"/>
<stop offset="0.33" stop-color="#F7F190"/>
<stop offset="0.66" stop-color="#F7F190"/>
<stop offset="1" stop-color="#EBBF3B"/>
</linearGradient>
<linearGradient id="paint13_linear_7_1596" x1="16.3933" y1="37.2727" x2="16.3933" y2="39.9393" gradientUnits="userSpaceOnUse">
<stop stop-color="#AA7835"/>
<stop offset="0.33" stop-color="#F7F190"/>
<stop offset="0.66" stop-color="#F7F190"/>
<stop offset="1" stop-color="#EBBF3B"/>
</linearGradient>
<linearGradient id="paint14_linear_7_1596" x1="18.7678" y1="37.2608" x2="18.7678" y2="39.9551" gradientUnits="userSpaceOnUse">
<stop stop-color="#AA7835"/>
<stop offset="0.33" stop-color="#F7F190"/>
<stop offset="0.66" stop-color="#F7F190"/>
<stop offset="1" stop-color="#EBBF3B"/>
</linearGradient>
<linearGradient id="paint15_linear_7_1596" x1="22.1735" y1="37.2706" x2="22.1735" y2="39.9373" gradientUnits="userSpaceOnUse">
<stop stop-color="#AA7835"/>
<stop offset="0.33" stop-color="#F7F190"/>
<stop offset="0.66" stop-color="#F7F190"/>
<stop offset="1" stop-color="#EBBF3B"/>
</linearGradient>
<linearGradient id="paint16_linear_7_1596" x1="24.8191" y1="37.2345" x2="24.8191" y2="39.9977" gradientUnits="userSpaceOnUse">
<stop stop-color="#AA7835"/>
<stop offset="0.33" stop-color="#F7F190"/>
<stop offset="0.66" stop-color="#F7F190"/>
<stop offset="1" stop-color="#EBBF3B"/>
</linearGradient>
<linearGradient id="paint17_linear_7_1596" x1="27.4588" y1="37.2543" x2="27.4588" y2="39.994" gradientUnits="userSpaceOnUse">
<stop stop-color="#AA7835"/>
<stop offset="0.33" stop-color="#F7F190"/>
<stop offset="0.66" stop-color="#F7F190"/>
<stop offset="1" stop-color="#EBBF3B"/>
</linearGradient>
<linearGradient id="paint18_linear_7_1596" x1="29.9151" y1="37.2314" x2="29.9151" y2="39.9947" gradientUnits="userSpaceOnUse">
<stop stop-color="#AA7835"/>
<stop offset="0.33" stop-color="#F7F190"/>
<stop offset="0.66" stop-color="#F7F190"/>
<stop offset="1" stop-color="#EBBF3B"/>
</linearGradient>
<linearGradient id="paint19_linear_7_1596" x1="32.3287" y1="37.2608" x2="32.3287" y2="39.9551" gradientUnits="userSpaceOnUse">
<stop stop-color="#AA7835"/>
<stop offset="0.33" stop-color="#F7F190"/>
<stop offset="0.66" stop-color="#F7F190"/>
<stop offset="1" stop-color="#EBBF3B"/>
</linearGradient>
</defs>
</svg>
