<svg width="50" height="40" viewBox="0 0 50 40" fill="none" xmlns="http://www.w3.org/2000/svg">
<g clip-path="url(#clip0_7_1569)">
<path d="M41.6835 21.1622L41.261 24.4146L40.17 22.8212L35.1194 21.9826L34.2815 21.8477L30.076 21.1276L26.7775 15.5307L25.7102 16.1998L26.2348 14.6083L28.9686 15.0896L30.6352 17.0639L28.5024 0L34.5256 2.79477L36.4635 6.81646L37.7075 13.5582L33.2743 18.63L39.1883 22.1959L41.6835 21.1622Z" fill="url(#paint0_linear_7_1569)"/>
<path d="M10.6586 22.1959L16.5726 18.63L12.1394 13.5582L13.3834 6.81646L15.3195 2.79477L21.3445 0L19.2117 17.0639L20.8783 15.0896L23.6121 14.6083L24.1367 16.1998L23.0693 15.5307L19.7709 21.1276L15.5653 21.8477L14.7275 21.9826L9.67688 22.8212L8.58589 24.4146L8.16333 21.1622L10.6586 22.1959Z" fill="url(#paint1_linear_7_1569)"/>
<path d="M3.98525 31.3878V29.8546H7.50594V32.9994C6.8375 33.4552 6.23463 33.776 5.72101 33.9401C5.20738 34.1042 4.5863 34.1917 3.87779 34.1917C3.16928 34.1917 2.28774 34.0458 1.73405 33.745C1.18218 33.4442 0.754156 32.9976 0.453631 32.416C0.153107 31.8235 -0.00170898 31.1435 -0.00170898 30.3869C-0.00170898 29.6303 0.164035 28.8829 0.493701 28.2904C0.823368 27.6979 1.30785 27.2421 1.94897 26.9322C2.44438 26.6897 3.12193 26.5731 3.96522 26.5731C4.80851 26.5731 5.39134 26.6515 5.7884 26.7955C6.19638 26.9413 6.52605 27.1747 6.79743 27.4846C7.05971 27.7945 7.2637 28.1938 7.39848 28.6696L5.19646 29.0579C5.10903 28.7772 4.95421 28.562 4.74112 28.418C4.52802 28.274 4.2457 28.1956 3.91604 28.1956C3.42063 28.1956 3.01446 28.3706 2.72305 28.7206C2.42252 29.0707 2.27681 29.6139 2.27681 30.3705C2.27681 31.1271 2.42252 31.7396 2.72305 32.0787C3.02357 32.4178 3.44066 32.5928 3.97432 32.5928C4.50798 32.5928 4.46973 32.5546 4.70105 32.4853C4.93418 32.4069 5.19646 32.2811 5.49698 32.1061V31.4078L3.98343 31.3878H3.98525Z" fill="url(#paint2_linear_7_1569)"/>
<path d="M8.57324 30.3796C8.57324 29.1764 8.91202 28.2339 9.58228 27.5648C10.2507 26.8958 11.1833 26.5548 12.3854 26.5548C13.5874 26.5548 14.5582 26.8848 15.2176 27.5448C15.8769 28.2047 16.2157 29.1272 16.2157 30.3104C16.2157 31.4935 16.07 31.8837 15.7785 32.4361C15.4871 32.9885 15.07 33.4169 14.5182 33.7268C13.9663 34.0367 13.2869 34.1826 12.4728 34.1826C11.6586 34.1826 10.9501 34.0458 10.4074 33.7851C9.86459 33.5226 9.41835 33.096 9.07958 32.5236C8.74991 31.9511 8.57506 31.2328 8.57506 30.3778L8.57324 30.3796ZM10.8518 30.3888C10.8518 31.1362 10.9884 31.6704 11.2689 31.9912C11.5493 32.3212 11.9191 32.4762 12.3945 32.4762C12.8698 32.4762 13.2669 32.3212 13.5292 32.0004C13.8005 31.6795 13.9262 31.107 13.9262 30.283C13.9262 29.459 13.7896 29.0798 13.5091 28.7589C13.2286 28.4381 12.8498 28.274 12.3744 28.274C11.899 28.274 11.5493 28.4399 11.2689 28.7589C10.9884 29.098 10.8518 29.6322 10.8518 30.3906V30.3888Z" fill="url(#paint3_linear_7_1569)"/>
<path d="M16.651 26.6806H23.5758V28.5055H21.2481V34.0586H18.9695V28.5055H16.6418V26.6806H16.651Z" fill="url(#paint4_linear_7_1569)"/>
<path d="M23.9729 30.3796C23.9729 29.1764 24.3117 28.2339 24.9819 27.5648C25.6504 26.8958 26.5829 26.5548 27.785 26.5548C28.9871 26.5548 29.9579 26.8848 30.6172 27.5448C31.2766 28.2047 31.6153 29.1272 31.6153 30.3104C31.6153 31.4935 31.4696 31.8837 31.1782 32.4361C30.8868 32.9885 30.4697 33.4169 29.9178 33.7268C29.366 34.0367 28.6866 34.1826 27.8724 34.1826C27.0583 34.1826 26.3498 34.0458 25.807 33.7851C25.2642 33.5226 24.818 33.096 24.4792 32.5236C24.1405 31.9511 23.9747 31.2328 23.9747 30.3778L23.9729 30.3796ZM26.2514 30.3888C26.2514 31.1362 26.388 31.6704 26.6685 31.9912C26.949 32.3212 27.3187 32.4762 27.7941 32.4762C28.2695 32.4762 28.6665 32.3212 28.9288 32.0004C29.2002 31.6795 29.3259 31.107 29.3259 30.283C29.3259 29.459 29.1893 29.0798 28.9088 28.7589C28.6283 28.4381 28.2495 28.274 27.7741 28.274C27.2987 28.274 26.949 28.4399 26.6685 28.7589C26.388 29.098 26.2514 29.6322 26.2514 30.3906V30.3888Z" fill="url(#paint5_linear_7_1569)"/>
<path d="M32.8083 26.6806H35.8045L36.9592 31.1745L38.103 26.6806H41.0992V34.0586H39.2378V28.429L37.8025 34.0586H36.1159L34.6807 28.429V34.0586H32.8193V26.6806H32.8102H32.8083Z" fill="url(#paint6_linear_7_1569)"/>
<path d="M47.0822 32.8444H44.5032L44.1443 34.0586H41.8167L44.5906 26.6806H47.0731L49.847 34.0586H47.461L47.0822 32.8444ZM46.6178 31.242L45.8036 28.5912L44.9986 31.242H46.6178Z" fill="url(#paint7_linear_7_1569)"/>
<path d="M10.0904 37.6209H0.153076V38.1678H10.0904V37.6209Z" fill="url(#paint8_linear_7_1569)"/>
<path d="M50.0001 37.6209H40.0627V38.1678H50.0001V37.6209Z" fill="url(#paint9_linear_7_1569)"/>
<path d="M15.8986 37.8889V39.5552C15.6892 39.7083 15.467 39.8213 15.232 39.8924C14.9952 39.9635 14.7439 40 14.4743 40C14.1392 40 13.835 39.9471 13.5618 39.8432C13.2904 39.7393 13.0573 39.5934 12.8642 39.4075C12.6712 39.2215 12.5236 38.9991 12.4198 38.7421C12.316 38.485 12.2632 38.2024 12.2632 37.8962C12.2632 37.5899 12.3142 37.3037 12.4144 37.0448C12.5145 36.7859 12.6584 36.5653 12.8424 36.3794C13.0263 36.1934 13.2522 36.0494 13.5145 35.9473C13.7786 35.8452 14.0736 35.7942 14.4015 35.7942C14.569 35.7942 14.7238 35.8069 14.8696 35.8343C15.0153 35.8616 15.15 35.8981 15.2739 35.9437C15.3977 35.9911 15.5107 36.0476 15.6145 36.1132C15.7165 36.1788 15.8112 36.2536 15.8968 36.332L15.6782 36.6802C15.6436 36.7349 15.5999 36.7695 15.5453 36.7804C15.4906 36.7932 15.4305 36.7804 15.3668 36.7385C15.3049 36.702 15.2411 36.6656 15.1792 36.6309C15.1173 36.5963 15.0462 36.5635 14.9697 36.5362C14.8932 36.5088 14.8058 36.4869 14.7111 36.4705C14.6164 36.4541 14.5053 36.445 14.3796 36.445C14.1774 36.445 13.9935 36.4796 13.8296 36.5471C13.6656 36.6164 13.5254 36.713 13.4106 36.8406C13.2959 36.9682 13.2066 37.1214 13.1429 37.2982C13.081 37.4769 13.0482 37.6756 13.0482 37.8962C13.0482 38.1313 13.081 38.341 13.1484 38.5269C13.2158 38.7129 13.3105 38.8679 13.4325 38.9973C13.5545 39.1249 13.7021 39.2234 13.8751 39.2908C14.0481 39.3583 14.2394 39.3911 14.4525 39.3911C14.6036 39.3911 14.7402 39.3747 14.8586 39.3419C14.9788 39.309 15.0954 39.2653 15.2083 39.2106V38.465H14.6911C14.6419 38.465 14.6036 38.4504 14.5763 38.423C14.549 38.3957 14.5344 38.361 14.5344 38.3228V37.8907H15.9004L15.8986 37.8889Z" fill="url(#paint10_linear_7_1569)"/>
<path d="M17.4067 36.445V37.5862H18.8456V38.1751H17.4067V39.34H19.2335V39.9526H16.6399V35.8343H19.2335V36.4432H17.4067V36.445Z" fill="url(#paint11_linear_7_1569)"/>
<path d="M23.3772 35.8361V39.9544H22.9837C22.9236 39.9544 22.8726 39.9453 22.8308 39.9252C22.7907 39.9052 22.7506 39.8724 22.7124 39.825L20.565 37.0794C20.5759 37.2052 20.5814 37.3201 20.5814 37.4276V39.9562H19.9075V35.8379H20.3082C20.341 35.8379 20.3683 35.8379 20.392 35.8416C20.4156 35.8452 20.4357 35.8507 20.4539 35.858C20.4721 35.8671 20.4903 35.878 20.5067 35.8944C20.5231 35.9108 20.5431 35.9327 20.5632 35.9582L22.7197 38.7147C22.7142 38.6491 22.7087 38.5835 22.7051 38.5178C22.7014 38.454 22.6996 38.3939 22.6996 38.3392V35.8361H23.3735H23.3772Z" fill="url(#paint12_linear_7_1569)"/>
<path d="M25.062 36.445V37.5862H26.5008V38.1751H25.062V39.34H26.8888V39.9526H24.2952V35.8343H26.8888V36.4432H25.062V36.445Z" fill="url(#paint13_linear_7_1569)"/>
<path d="M30.7773 39.9544H30.0852C29.9541 39.9544 29.8594 39.9034 29.8011 39.8013L28.9359 38.4832C28.9032 38.434 28.8685 38.3993 28.8285 38.3774C28.7902 38.3574 28.7319 38.3465 28.6573 38.3465H28.3294V39.9544H27.5645V35.8361H28.8194C29.098 35.8361 29.3385 35.8653 29.537 35.9236C29.7373 35.9819 29.9013 36.0621 30.0288 36.1679C30.1562 36.2736 30.251 36.3976 30.3111 36.5416C30.3712 36.6875 30.4021 36.8461 30.4021 37.0211C30.4021 37.1596 30.3821 37.2909 30.3402 37.4149C30.3001 37.5388 30.24 37.65 30.1635 37.7503C30.087 37.8506 29.9923 37.9399 29.8794 38.0147C29.7665 38.0912 29.6372 38.1496 29.4933 38.1933C29.5425 38.2225 29.588 38.2553 29.6299 38.2936C29.6718 38.3319 29.71 38.3793 29.7428 38.4321L30.7719 39.9526L30.7773 39.9544ZM28.8084 37.7959C28.9523 37.7959 29.078 37.7777 29.1855 37.7412C29.2929 37.7047 29.3804 37.6555 29.4496 37.5917C29.5188 37.5279 29.5698 37.4532 29.6044 37.3656C29.639 37.2781 29.6554 37.1833 29.6554 37.0776C29.6554 36.8679 29.5862 36.7075 29.4496 36.5963C29.313 36.4851 29.1017 36.4286 28.8194 36.4286H28.3294V37.7959H28.8066H28.8084Z" fill="url(#paint14_linear_7_1569)"/>
<path d="M34.7478 39.9544H34.1558C34.0903 39.9544 34.0356 39.938 33.9937 39.9052C33.9519 39.8724 33.9209 39.8304 33.899 39.7812L33.5912 38.9408H31.8864L31.5786 39.7812C31.5641 39.825 31.5331 39.8651 31.4912 39.9015C31.4475 39.938 31.3928 39.9562 31.3291 39.9562H30.7317L32.3509 35.8379H33.1304L34.746 39.9562L34.7478 39.9544ZM33.3963 38.3993L32.8955 37.0302C32.87 36.97 32.8445 36.8971 32.819 36.8133C32.7917 36.7294 32.7662 36.6401 32.7388 36.5434C32.7133 36.6401 32.6878 36.7312 32.6623 36.8151C32.6368 36.8989 32.6095 36.9737 32.5858 37.0357L32.0886 38.3993H33.3963Z" fill="url(#paint15_linear_7_1569)"/>
<path d="M37.5837 39.3218V39.9544H35.1741V35.8361H35.939V39.3218H37.5837Z" fill="url(#paint16_linear_7_1569)"/>
</g>
<defs>
<linearGradient id="paint0_linear_7_1569" x1="33.6969" y1="-0.0346384" x2="33.6969" y2="22.5897" gradientUnits="userSpaceOnUse">
<stop stop-color="#B17B2C"/>
<stop offset="0.33" stop-color="#FBF18F"/>
<stop offset="0.66" stop-color="#FBF18F"/>
<stop offset="1" stop-color="#EFC32A"/>
</linearGradient>
<linearGradient id="paint1_linear_7_1569" x1="16.15" y1="-0.0346384" x2="16.15" y2="22.5897" gradientUnits="userSpaceOnUse">
<stop stop-color="#B17B2C"/>
<stop offset="0.33" stop-color="#FBF18F"/>
<stop offset="0.66" stop-color="#FBF18F"/>
<stop offset="1" stop-color="#EFC32A"/>
</linearGradient>
<linearGradient id="paint2_linear_7_1569" x1="3.75394" y1="26.6897" x2="3.75394" y2="33.3494" gradientUnits="userSpaceOnUse">
<stop stop-color="#B17B2C"/>
<stop offset="0.33" stop-color="#FBF18F"/>
<stop offset="0.66" stop-color="#FBF18F"/>
<stop offset="1" stop-color="#EFC32A"/>
</linearGradient>
<linearGradient id="paint3_linear_7_1569" x1="12.3945" y1="26.6897" x2="12.3945" y2="33.3494" gradientUnits="userSpaceOnUse">
<stop stop-color="#B17B2C"/>
<stop offset="0.33" stop-color="#FBF18F"/>
<stop offset="0.66" stop-color="#FBF18F"/>
<stop offset="1" stop-color="#EFC32A"/>
</linearGradient>
<linearGradient id="paint4_linear_7_1569" x1="20.1079" y1="26.6897" x2="20.1079" y2="33.3494" gradientUnits="userSpaceOnUse">
<stop stop-color="#B17B2C"/>
<stop offset="0.33" stop-color="#FBF18F"/>
<stop offset="0.66" stop-color="#FBF18F"/>
<stop offset="1" stop-color="#EFC32A"/>
</linearGradient>
<linearGradient id="paint5_linear_7_1569" x1="27.7941" y1="26.6897" x2="27.7941" y2="33.3494" gradientUnits="userSpaceOnUse">
<stop stop-color="#B17B2C"/>
<stop offset="0.33" stop-color="#FBF18F"/>
<stop offset="0.66" stop-color="#FBF18F"/>
<stop offset="1" stop-color="#EFC32A"/>
</linearGradient>
<linearGradient id="paint6_linear_7_1569" x1="36.9538" y1="26.6897" x2="36.9538" y2="33.3494" gradientUnits="userSpaceOnUse">
<stop stop-color="#B17B2C"/>
<stop offset="0.33" stop-color="#FBF18F"/>
<stop offset="0.66" stop-color="#FBF18F"/>
<stop offset="1" stop-color="#EFC32A"/>
</linearGradient>
<linearGradient id="paint7_linear_7_1569" x1="45.8309" y1="26.6897" x2="45.8309" y2="33.3494" gradientUnits="userSpaceOnUse">
<stop stop-color="#B17B2C"/>
<stop offset="0.33" stop-color="#FBF18F"/>
<stop offset="0.66" stop-color="#FBF18F"/>
<stop offset="1" stop-color="#EFC32A"/>
</linearGradient>
<linearGradient id="paint8_linear_7_1569" x1="5.12175" y1="-0.129454" x2="5.12175" y2="39.3437" gradientUnits="userSpaceOnUse">
<stop stop-color="#B17B2C"/>
<stop offset="0.33" stop-color="#FBF18F"/>
<stop offset="0.66" stop-color="#FBF18F"/>
<stop offset="1" stop-color="#EFC32A"/>
</linearGradient>
<linearGradient id="paint9_linear_7_1569" x1="45.0314" y1="-0.129454" x2="45.0314" y2="39.3437" gradientUnits="userSpaceOnUse">
<stop stop-color="#B17B2C"/>
<stop offset="0.33" stop-color="#FBF18F"/>
<stop offset="0.66" stop-color="#FBF18F"/>
<stop offset="1" stop-color="#EFC32A"/>
</linearGradient>
<linearGradient id="paint10_linear_7_1569" x1="14.0809" y1="35.8489" x2="14.0809" y2="39.1559" gradientUnits="userSpaceOnUse">
<stop stop-color="#B17B2C"/>
<stop offset="0.33" stop-color="#FBF18F"/>
<stop offset="0.66" stop-color="#FBF18F"/>
<stop offset="1" stop-color="#EFC32A"/>
</linearGradient>
<linearGradient id="paint11_linear_7_1569" x1="17.9349" y1="35.8488" x2="17.9349" y2="39.1559" gradientUnits="userSpaceOnUse">
<stop stop-color="#B17B2C"/>
<stop offset="0.33" stop-color="#FBF18F"/>
<stop offset="0.66" stop-color="#FBF18F"/>
<stop offset="1" stop-color="#EFC32A"/>
</linearGradient>
<linearGradient id="paint12_linear_7_1569" x1="21.6432" y1="35.8489" x2="21.6432" y2="39.1559" gradientUnits="userSpaceOnUse">
<stop stop-color="#B17B2C"/>
<stop offset="0.33" stop-color="#FBF18F"/>
<stop offset="0.66" stop-color="#FBF18F"/>
<stop offset="1" stop-color="#EFC32A"/>
</linearGradient>
<linearGradient id="paint13_linear_7_1569" x1="25.5902" y1="35.8488" x2="25.5902" y2="39.1559" gradientUnits="userSpaceOnUse">
<stop stop-color="#B17B2C"/>
<stop offset="0.33" stop-color="#FBF18F"/>
<stop offset="0.66" stop-color="#FBF18F"/>
<stop offset="1" stop-color="#EFC32A"/>
</linearGradient>
<linearGradient id="paint14_linear_7_1569" x1="29.1709" y1="35.8489" x2="29.1709" y2="39.1559" gradientUnits="userSpaceOnUse">
<stop stop-color="#B17B2C"/>
<stop offset="0.33" stop-color="#FBF18F"/>
<stop offset="0.66" stop-color="#FBF18F"/>
<stop offset="1" stop-color="#EFC32A"/>
</linearGradient>
<linearGradient id="paint15_linear_7_1569" x1="32.7407" y1="35.8489" x2="32.7407" y2="39.1559" gradientUnits="userSpaceOnUse">
<stop stop-color="#B17B2C"/>
<stop offset="0.33" stop-color="#FBF18F"/>
<stop offset="0.66" stop-color="#FBF18F"/>
<stop offset="1" stop-color="#EFC32A"/>
</linearGradient>
<linearGradient id="paint16_linear_7_1569" x1="36.3798" y1="35.8489" x2="36.3798" y2="39.1559" gradientUnits="userSpaceOnUse">
<stop stop-color="#B17B2C"/>
<stop offset="0.33" stop-color="#FBF18F"/>
<stop offset="0.66" stop-color="#FBF18F"/>
<stop offset="1" stop-color="#EFC32A"/>
</linearGradient>
<clipPath id="clip0_7_1569">
<rect width="50" height="40" fill="white"/>
</clipPath>
</defs>
</svg>
