<svg width="2000" height="1000" viewBox="0 0 2000 1000" fill="none" xmlns="http://www.w3.org/2000/svg">
<path d="M253.45 337.14C278.57 337.14 302.93 341.85 325.83 351.13C347.9 360.07 367.71 372.86 384.7 389.15C401.63 405.36 414.9 424.22 424.16 445.18C433.71 466.8 438.55 489.77 438.55 513.46C438.55 537.15 433.71 560.11 424.16 581.74C414.9 602.71 401.63 621.56 384.7 637.77C367.7 654.05 347.89 666.84 325.83 675.79C302.93 685.07 278.58 689.78 253.45 689.78C228.32 689.78 203.97 685.07 181.07 675.79C159 666.85 139.19 654.06 122.2 637.77C105.28 621.56 92 602.7 82.74 581.74C73.19 560.12 68.35 537.15 68.35 513.46C68.35 489.77 73.19 466.81 82.74 445.18C92 424.21 105.27 405.36 122.2 389.15C139.2 372.87 159.01 360.08 181.07 351.13C203.97 341.85 228.32 337.14 253.45 337.14ZM253.45 313.08C137.94 313.08 44.29 402.79 44.29 513.45C44.29 624.11 137.93 713.82 253.45 713.82C368.97 713.82 462.61 624.11 462.61 513.45C462.61 402.79 368.97 313.08 253.45 313.08Z" fill="#0098FF"/>
<path d="M304.76 468.53C311.85 478.84 316.01 491.32 316.01 504.77C316.01 540.13 287.35 568.79 251.99 568.79C216.63 568.79 187.97 540.13 187.97 504.77C187.97 492.5 191.42 481.04 197.41 471.3C147.14 487.63 98.22 515.81 98.22 515.81C98.22 515.81 163.8 594.72 249.79 595.52C351.47 596.46 405.76 516.13 405.76 516.13C405.76 516.13 355.56 484.27 304.76 468.54V468.53Z" fill="#0098FF"/>
<path d="M70.45 511.31C70.45 511.31 247.65 370.51 435.1 511.52C435.1 511.52 261.04 298.55 70.45 511.31Z" fill="#0098FF"/>
<path d="M645.2 475.11C642.88 452.62 629.32 441.7 601.54 441.7C575.74 441.7 562.18 450.96 562.18 467.5C562.18 481.39 571.77 489.33 596.25 495.28C621.06 501.23 645.2 507.19 661.41 514.46C680.59 523.06 695.81 536.62 695.81 567.71C695.81 616 659.43 637.5 608.16 637.5C553.91 637.5 516.21 613.35 515.21 564.07H559.53C560.19 586.56 579.05 600.45 608.48 600.45C635.6 600.45 651.15 588.87 651.15 569.36C651.15 556.46 644.53 547.53 617.08 541.58C589.96 535.63 572.43 531.66 556.88 524.71C533.4 514.13 520.17 498.25 520.17 470.46C520.17 431.1 546.96 402.98 600.55 402.98C654.14 402.98 687.21 433.08 688.86 475.09H645.2V475.11Z" fill="#3F3F3F"/>
<path d="M898.89 629.91V531.34C898.89 511.83 888.64 497.93 873.42 497.93C858.2 497.93 845.97 512.81 845.97 532.66V629.91H802.97V532C802.97 505.87 796.02 499.25 777.17 499.25C759.97 499.25 751.04 509.83 751.04 531V629.9H708.04V467.16H748.39V490.98C759.31 469.48 774.52 462.86 796.02 462.86C817.52 462.86 828.77 469.81 841.33 488.66C850.26 470.8 864.81 462.86 885.32 462.86C918.07 462.86 940.89 486.68 940.89 517.11V629.9H898.88H898.89V629.91Z" fill="#3F3F3F"/>
<path d="M1059.31 629.91C1057.99 625.94 1056.99 620.32 1056.66 615.36C1046.41 626.61 1029.21 634.21 1007.38 634.21C970.33 634.21 953.13 616.02 953.13 589.56C953.13 542.59 984.55 537.3 1027.88 531.35C1049.38 528.37 1055.33 524.07 1055.33 512.83C1055.33 502.25 1044.75 495.96 1027.88 495.96C1008.37 495.96 1000.43 505.55 998.44 520.11H958.42C959.08 486.37 977.6 462.89 1029.86 462.89C1082.12 462.89 1099.32 486.04 1099.32 527.06V629.93H1059.3V629.91H1059.31ZM1056.33 550.19C1052.03 554.49 1044.42 556.81 1028.54 559.78C1004.06 564.41 996.13 571.36 996.13 585.25C996.13 597.49 1003.41 603.44 1016.97 603.44C1039.13 603.44 1055.67 587.23 1056 568.05L1056.33 550.19Z" fill="#3F3F3F"/>
<path d="M1118.18 629.91V467.17H1158.53V486.69C1172.75 464.86 1189.29 462.87 1206.82 462.87H1212.44V506.86C1208.47 506.2 1204.5 505.87 1200.53 505.87C1174.07 505.87 1161.17 519.1 1161.17 545.23V629.91H1118.17H1118.18Z" fill="#3F3F3F"/>
<path d="M1316.64 522.74H1356.66V569.05C1356.66 603.45 1336.81 634.21 1290.84 634.21C1244.87 634.21 1224.36 603.78 1224.36 568.72V423.18H1266.7V467.17H1356.67V497.6H1266.7V564.41C1266.7 584.92 1273.98 596.83 1291.51 596.83C1309.04 596.83 1316.65 585.25 1316.65 565.08V522.74H1316.64Z" fill="#3F3F3F"/>
<path d="M1504.84 629.91V531.34H1419.17V629.91H1373.19V410.28H1419.17V492.97H1504.84V410.28H1551.15V629.91H1504.84Z" fill="#0098FF"/>
<path d="M1697.34 410.28H1744.31V556.81C1744.31 610.06 1711.56 637.52 1654.01 637.52C1600.76 637.52 1567.35 612.38 1567.35 559.46V410.29H1613.99V555.17C1613.99 582.29 1628.54 599.49 1653.35 599.49C1682.79 599.49 1697.34 585.6 1697.34 556.82V410.29V410.28Z" fill="#0098FF"/>
<path d="M1761.18 629.91V410.28H1869.34C1912.34 410.28 1935.49 433.43 1935.49 470.15C1935.49 489 1923.91 504.88 1908.7 511.17C1927.22 518.12 1942.11 533 1942.11 564.42C1942.11 604.44 1915.32 629.91 1860.08 629.91H1761.18ZM1805.5 448.32V495.95H1863.38C1881.57 495.95 1891.17 487.68 1891.17 472.14C1891.17 455.27 1882.24 448.32 1860.74 448.32H1805.5ZM1863.72 592.53C1884.89 592.53 1897.46 578.97 1897.46 561.11C1897.46 541.93 1884.89 533.33 1864.38 533.33H1805.5V592.54H1863.72V592.53Z" fill="#0098FF"/>
</svg>
